<?xml version="1.0" encoding="utf-8"?>
<!-- Generator: Adobe Illustrator 24.0.0, SVG Export Plug-In . SVG Version: 6.00 Build 0)  -->
<svg version="1.1" xmlns="http://www.w3.org/2000/svg" xmlns:xlink="http://www.w3.org/1999/xlink" x="0px" y="0px"
	 viewBox="0 0 338.18 311.29" style="enable-background:new 0 0 338.18 311.29;" xml:space="preserve">
<style type="text/css">
	.st0{fill:#DBE8F0;}
	.st1{opacity:0.5;}
	.st2{fill:#FFFFFF;}
	.st3{fill:#7B1FA2;}
	.st4{fill:#FFA726;}
	.st5{fill:url(#SVGID_1_);}
	.st6{fill:url(#SVGID_2_);}
	.st7{opacity:0.8;fill:url(#SVGID_3_);}
	.st8{opacity:0.8;fill:url(#SVGID_4_);}
	.st9{opacity:0.8;fill:url(#SVGID_5_);}
	.st10{opacity:0.8;fill:url(#SVGID_6_);}
	.st11{opacity:0.8;fill:url(#SVGID_7_);}
	.st12{opacity:0.8;fill:url(#SVGID_8_);}
	.st13{fill:#CBDFEF;}
	.st14{opacity:0.8;fill:url(#SVGID_9_);}
	.st15{fill:url(#SVGID_10_);}
	.st16{fill:#809297;}
	.st17{fill:url(#XMLID_25_);}
	.st18{fill:#8A9EA2;}
	.st19{fill:url(#XMLID_26_);}
	.st20{fill:#92A7AC;}
	.st21{fill:url(#XMLID_27_);}
	.st22{opacity:0.1;fill:#FFFFFF;}
	.st23{fill:#FDC870;}
	.st24{fill:url(#SVGID_11_);}
	.st25{fill:url(#XMLID_28_);}
	.st26{fill:url(#SVGID_12_);}
	.st27{fill:url(#SVGID_13_);}
	.st28{fill:url(#SVGID_14_);}
	.st29{opacity:0.7;fill:url(#SVGID_15_);}
	.st30{opacity:0.7;fill:url(#SVGID_16_);}
	.st31{fill:url(#SVGID_17_);}
	.st32{opacity:0.8;fill:url(#SVGID_18_);}
	.st33{fill:url(#SVGID_19_);}
	.st34{fill:#FFB300;}
	.st35{fill:#FFA000;}
	.st36{fill:#FFCA28;}
	.st37{opacity:0.7;fill:url(#SVGID_20_);}
	.st38{opacity:0.7;fill:url(#SVGID_21_);}
	.st39{fill:url(#SVGID_22_);}
	.st40{opacity:0.8;fill:url(#SVGID_23_);}
	.st41{fill:url(#SVGID_24_);}
	.st42{fill:#D32F2F;}
	.st43{opacity:0.8;fill:url(#SVGID_25_);}
	.st44{fill:#EF5350;}
	.st45{fill:none;stroke:#FFFFFF;stroke-width:1.0404;stroke-miterlimit:10;}
	.st46{opacity:0.7;fill:url(#SVGID_26_);}
	.st47{opacity:0.7;fill:url(#SVGID_27_);}
	.st48{fill:url(#SVGID_28_);}
	.st49{fill:#25284C;}
	.st50{fill:#111638;}
	.st51{fill:#F5F5F5;}
	.st52{fill:#7B92B9;}
	.st53{fill:#6A7EA2;}
	.st54{fill:none;stroke:#FFFFFF;stroke-width:0.7521;stroke-miterlimit:10;}
	.st55{opacity:0.8;fill:url(#SVGID_29_);}
	.st56{opacity:0.8;fill:url(#SVGID_30_);}
	.st57{opacity:0.8;fill:url(#SVGID_31_);}
	.st58{fill:url(#SVGID_32_);}
	.st59{fill:url(#SVGID_33_);}
	.st60{opacity:0.7;fill:url(#SVGID_34_);}
	.st61{fill:url(#SVGID_35_);}
	.st62{fill:none;stroke:#FFFFFF;stroke-width:1.0404;stroke-linecap:round;stroke-linejoin:round;stroke-miterlimit:10;}
	.st63{fill:#FFEE58;}
	.st64{fill:none;stroke:#FFFFFF;stroke-width:0.5202;stroke-linecap:round;stroke-linejoin:round;stroke-miterlimit:10;}
	.st65{fill:url(#SVGID_36_);}
	.st66{fill:url(#SVGID_37_);}
	.st67{fill:url(#SVGID_38_);}
	.st68{opacity:0.8;fill:url(#SVGID_39_);}
	.st69{opacity:0.8;fill:url(#SVGID_40_);}
	.st70{opacity:0.8;fill:url(#SVGID_41_);}
	.st71{opacity:0.8;fill:url(#SVGID_42_);}
	.st72{opacity:0.8;fill:url(#SVGID_43_);}
	.st73{opacity:0.8;fill:url(#SVGID_44_);}
	.st74{opacity:0.8;fill:url(#SVGID_45_);}
	.st75{fill:url(#SVGID_46_);}
	.st76{fill:url(#XMLID_29_);}
	.st77{fill:url(#XMLID_30_);}
	.st78{fill:url(#XMLID_31_);}
	.st79{fill:url(#SVGID_47_);}
	.st80{fill:url(#XMLID_32_);}
	.st81{fill:url(#SVGID_48_);}
	.st82{fill:url(#SVGID_49_);}
	.st83{fill:url(#SVGID_50_);}
	.st84{opacity:0.7;fill:url(#SVGID_51_);}
	.st85{opacity:0.7;fill:url(#SVGID_52_);}
	.st86{fill:url(#SVGID_53_);}
	.st87{opacity:0.8;fill:url(#SVGID_54_);}
	.st88{fill:url(#SVGID_55_);}
	.st89{opacity:0.7;fill:url(#SVGID_56_);}
	.st90{opacity:0.7;fill:url(#SVGID_57_);}
	.st91{fill:url(#SVGID_58_);}
	.st92{opacity:0.8;fill:url(#SVGID_59_);}
	.st93{fill:url(#SVGID_60_);}
	.st94{opacity:0.8;fill:url(#SVGID_61_);}
	.st95{opacity:0.7;fill:url(#SVGID_62_);}
	.st96{opacity:0.7;fill:url(#SVGID_63_);}
	.st97{fill:url(#SVGID_64_);}
	.st98{opacity:0.8;fill:url(#SVGID_65_);}
	.st99{opacity:0.8;fill:url(#SVGID_66_);}
	.st100{opacity:0.8;fill:url(#SVGID_67_);}
	.st101{fill:url(#SVGID_68_);}
	.st102{fill:url(#SVGID_69_);}
	.st103{opacity:0.7;fill:url(#SVGID_70_);}
	.st104{fill:url(#SVGID_71_);}
	.st105{fill:url(#SVGID_72_);}
	.st106{fill:#222221;}
</style>
<g id="Background">
</g>
<g id="Object">
	<g>
		<linearGradient id="SVGID_1_" gradientUnits="userSpaceOnUse" x1="170.1569" y1="305.5124" x2="170.1569" y2="-4.0386">
			<stop  offset="1.860120e-03" style="stop-color:#AC24B9"/>
			<stop  offset="1" style="stop-color:#2E2142"/>
		</linearGradient>
		<path class="st5" d="M338.18,229.38c-0.49,2.83-1.06,5.64-1.71,8.44c-0.5,2.13-1.04,4.25-1.62,6.35
			c-3.22,11.6-7.8,23.19-14.13,33.44c-6.46,10.49-14.76,19.6-25.32,25.94c-5.68,3.42-11.77,5.89-18.1,7.74H61.7
			c-20.85-11.32-39.15-31.24-35.17-54.57c3.46-20.3,6.71-40.55-0.41-59.31c-5.18-13.61-15.37-24.8-21.11-38.19
			C-9.2,126,8.67,95.92,35.17,77.47c0.96-0.67,1.93-1.32,2.91-1.96c0.23-0.15,0.47-0.3,0.7-0.45c1.08-0.69,2.15-1.41,3.2-2.14
			c2.28-1.59,4.48-3.26,6.64-5.02h0.01c1.62-1.32,3.21-2.67,4.78-4.07c0.37-0.32,0.75-0.65,1.11-0.99c2.16-1.94,4.28-3.94,6.37-5.98
			c1.1-1.07,2.19-2.16,3.28-3.25c8.48-8.51,16.66-17.42,25.62-25.18c8.54-7.39,17.79-13.74,28.69-17.7
			c6.81-2.47,13.81-4.2,20.88-5.18c27.95-3.93,57.03,3.52,79.72,20.9c1.11,0.85,2.22,1.73,3.32,2.63
			c11.73,9.59,22.52,21.82,27.29,35.94c6.01,17.77,14.87,34.92,31.03,45.49c13.33,8.71,25.95,14.49,36.57,27.15
			c3.83,4.56,7.13,9.37,9.94,14.38c2.29,4.09,4.26,8.3,5.92,12.62c2.21,5.75,3.87,11.68,5.03,17.73
			C341.14,197.71,340.9,213.75,338.18,229.38z"/>
		<linearGradient id="SVGID_2_" gradientUnits="userSpaceOnUse" x1="17.1759" y1="302.4504" x2="0.2823" y2="196.0209">
			<stop  offset="1.860120e-03" style="stop-color:#AC24B9"/>
			<stop  offset="1" style="stop-color:#2E2142"/>
		</linearGradient>
		<path class="st6" d="M2.61,265.4c-0.33,5.89,0.02,12.09,2.97,17.2c2.48,4.29,8.29,7.58,12.31,4.68c3.05-2.2,3.27-6.72,2.25-10.34
			c-1.02-3.62-2.96-7.02-3.24-10.77c-0.44-5.9,6.55-21.03-3.94-21.71C3.51,243.85,2.94,259.57,2.61,265.4z"/>
		<g>
			<linearGradient id="SVGID_3_" gradientUnits="userSpaceOnUse" x1="80.8213" y1="304.6895" x2="84.0434" y2="260.4582">
				<stop  offset="0" style="stop-color:#FFFFFF;stop-opacity:0"/>
				<stop  offset="1" style="stop-color:#662D8D"/>
			</linearGradient>
			<ellipse class="st7" cx="82.16" cy="286.28" rx="20.34" ry="8.01"/>
			<linearGradient id="SVGID_4_" gradientUnits="userSpaceOnUse" x1="184.5764" y1="305.7459" x2="187.7985" y2="261.5148">
				<stop  offset="0" style="stop-color:#FFFFFF;stop-opacity:0"/>
				<stop  offset="1" style="stop-color:#662D8D"/>
			</linearGradient>
			<ellipse class="st8" cx="185.92" cy="287.34" rx="20.34" ry="8.01"/>
			<linearGradient id="SVGID_5_" gradientUnits="userSpaceOnUse" x1="192.6362" y1="257.8611" x2="48.5179" y2="256.1036">
				<stop  offset="0" style="stop-color:#FFFFFF;stop-opacity:0"/>
				<stop  offset="1" style="stop-color:#662D8D"/>
			</linearGradient>
			<polygon class="st9" points="68.67,251.01 87.06,251.01 127.93,270.04 122.59,282.09 141.73,282.09 183.31,256.3 132.4,238.49 
				102.15,231.67 			"/>
			<linearGradient id="SVGID_6_" gradientUnits="userSpaceOnUse" x1="150.9037" y1="113.5058" x2="72.9864" y2="200.7964">
				<stop  offset="0" style="stop-color:#FFFFFF;stop-opacity:0"/>
				<stop  offset="1" style="stop-color:#662D8D"/>
			</linearGradient>
			<rect x="72.45" y="111.88" class="st10" width="100.79" height="66.12"/>
			<linearGradient id="SVGID_7_" gradientUnits="userSpaceOnUse" x1="389.5694" y1="244.5482" x2="224.0362" y2="244.5482">
				<stop  offset="0" style="stop-color:#FFFFFF;stop-opacity:0"/>
				<stop  offset="1" style="stop-color:#662D8D"/>
			</linearGradient>
			<path class="st11" d="M338.18,211.49v17.89c-0.49,2.83-1.06,5.64-1.71,8.44c-0.5,2.13-1.04,4.25-1.62,6.35
				c-3.22,11.6-7.8,23.19-14.13,33.44h-52.68v-66.12H338.18z"/>
			<linearGradient id="SVGID_8_" gradientUnits="userSpaceOnUse" x1="365.3541" y1="194.9282" x2="188.9511" y2="194.9282">
				<stop  offset="0" style="stop-color:#FFFFFF;stop-opacity:0"/>
				<stop  offset="1" style="stop-color:#662D8D"/>
			</linearGradient>
			<path class="st12" d="M338.18,182.39v46.99c-0.49,2.83-1.06,5.64-1.71,8.44H189.49v-85.78h137.74c2.29,4.09,4.26,8.3,5.92,12.62
				C335.36,170.41,337.02,176.34,338.18,182.39z"/>
			<g>
				<path class="st13" d="M222.47,216.95v-47.2H116.95v47.2l0,0c0,7.8,5.15,15.59,15.45,21.54c20.6,11.9,54.01,11.9,74.61,0
					C217.32,232.54,222.47,224.75,222.47,216.95z"/>
				<linearGradient id="SVGID_9_" gradientUnits="userSpaceOnUse" x1="161.8381" y1="208.5819" x2="241.1571" y2="208.5819">
					<stop  offset="0" style="stop-color:#FFFFFF;stop-opacity:0"/>
					<stop  offset="1" style="stop-color:#662D8D"/>
				</linearGradient>
				<path class="st14" d="M222.47,216.95v-47.2H116.95v47.2l0,0c0,7.8,5.15,15.59,15.45,21.54c20.6,11.9,54.01,11.9,74.61,0
					C217.32,232.54,222.47,224.75,222.47,216.95z"/>
				<ellipse class="st2" cx="169.71" cy="169.75" rx="52.76" ry="30.46"/>
				<g>
					<linearGradient id="SVGID_10_" gradientUnits="userSpaceOnUse" x1="169.7086" y1="114.9022" x2="169.7086" y2="219.347">
						<stop  offset="1.694780e-03" style="stop-color:#00D4C8"/>
						<stop  offset="1" style="stop-color:#00D2C7;stop-opacity:0"/>
					</linearGradient>
					<ellipse class="st15" cx="169.71" cy="163.84" rx="52.76" ry="30.46"/>
					<g>
						<path id="XMLID_21_" class="st16" d="M182.57,154.73c-0.18,5.5-6.27,9.76-13.58,9.52c-7.32-0.25-13.1-4.91-12.91-10.41
							c0.18-5.5,6.27-9.76,13.58-9.52C176.98,144.57,182.76,149.23,182.57,154.73z"/>
						<linearGradient id="XMLID_25_" gradientUnits="userSpaceOnUse" x1="156.0715" y1="154.2891" x2="182.5759" y2="154.2891">
							<stop  offset="3.946110e-03" style="stop-color:#FFFFFF;stop-opacity:0"/>
							<stop  offset="1" style="stop-color:#92A7AC"/>
						</linearGradient>
						<path id="XMLID_20_" class="st17" d="M182.57,154.73c-0.18,5.5-6.27,9.76-13.58,9.52c-7.32-0.25-13.1-4.91-12.91-10.41
							c0.18-5.5,6.27-9.76,13.58-9.52C176.98,144.57,182.76,149.23,182.57,154.73z"/>
						<path id="XMLID_19_" class="st18" d="M191.35,142.87c-0.23,6.71-10.09,11.82-22.03,11.42c-11.94-0.4-21.44-6.16-21.21-12.87
							c0.23-6.71,10.09-11.82,22.03-11.42C182.08,130.4,191.58,136.17,191.35,142.87z"/>
						<linearGradient id="XMLID_26_" gradientUnits="userSpaceOnUse" x1="162.3178" y1="142.1453" x2="187.3798" y2="142.1453">
							<stop  offset="3.946110e-03" style="stop-color:#FFFFFF;stop-opacity:0"/>
							<stop  offset="1" style="stop-color:#92A7AC"/>
						</linearGradient>
						<path id="XMLID_18_" class="st19" d="M191.35,142.87c-0.23,6.71-10.09,11.82-22.03,11.42c-11.94-0.4-21.44-6.16-21.21-12.87
							c0.23-6.71,10.09-11.82,22.03-11.42C182.08,130.4,191.58,136.17,191.35,142.87z"/>
						
							<ellipse id="XMLID_17_" transform="matrix(0.0336 -0.9994 0.9994 0.0336 29.7144 299.9962)" class="st20" cx="169.98" cy="134.63" rx="12.15" ry="21.63"/>
						<linearGradient id="XMLID_27_" gradientUnits="userSpaceOnUse" x1="158.3561" y1="134.6328" x2="188.5125" y2="134.6328">
							<stop  offset="3.946110e-03" style="stop-color:#FFFFFF;stop-opacity:0"/>
							<stop  offset="1" style="stop-color:#92A7AC"/>
						</linearGradient>
						<path id="XMLID_16_" class="st21" d="M191.61,135.36c-0.23,6.71-10.09,11.82-22.03,11.42c-11.94-0.4-21.44-6.16-21.21-12.87
							c0.23-6.71,10.09-11.82,22.03-11.42C182.33,122.89,191.83,128.65,191.61,135.36z"/>
						<path id="XMLID_15_" class="st22" d="M151.62,137.4c-0.6,0.3-1.46-0.22-1.92-1.15c-0.46-0.93-0.36-1.93,0.24-2.22
							c0.6-0.3,1.46,0.22,1.92,1.15C152.32,136.1,152.22,137.1,151.62,137.4z"/>
						<path id="XMLID_14_" class="st22" d="M152.79,139.2c-0.39,0.2-0.85,0.08-1.02-0.26c-0.17-0.34,0.01-0.78,0.4-0.98
							c0.39-0.2,0.85-0.08,1.02,0.26C153.36,138.56,153.18,139,152.79,139.2z"/>
						<path id="XMLID_13_" class="st22" d="M151.69,145.48c-0.6,0.3-1.46-0.22-1.92-1.15c-0.46-0.93-0.36-1.93,0.24-2.22
							c0.6-0.3,1.46,0.22,1.92,1.15C152.39,144.19,152.29,145.18,151.69,145.48z"/>
						<path id="XMLID_12_" class="st22" d="M152.86,147.28c-0.39,0.2-0.85,0.08-1.02-0.26c-0.17-0.34,0.01-0.78,0.4-0.98
							c0.39-0.2,0.85-0.08,1.02,0.26C153.43,146.65,153.25,147.09,152.86,147.28z"/>
						<path id="XMLID_11_" class="st23" d="M209.06,83.94c0.14-21.8-17.39-36.3-39.12-36.43c-21.73-0.14-39.44,14.13-39.58,35.94
							c-0.14,21.36,10.78,24.59,16.35,35.57c1.74,3.44,1.1,6.49,1.1,6.49c-0.05,8.3,8.97,12.99,21.55,13.07
							c12.58,0.08,21.66-4.5,21.72-12.79c0,0-0.6-3.06,1.19-6.47C197.97,108.39,208.92,105.3,209.06,83.94z"/>
						<linearGradient id="SVGID_11_" gradientUnits="userSpaceOnUse" x1="160.5943" y1="78.8094" x2="194.72" y2="119.1916">
							<stop  offset="3.946110e-03" style="stop-color:#FFFFFF;stop-opacity:0"/>
							<stop  offset="1" style="stop-color:#FDC870"/>
						</linearGradient>
						<path class="st24" d="M209.06,83.94c-0.01,1.33-0.06,2.59-0.15,3.8c-0.07,0.91-0.16,1.8-0.28,2.64
							c-0.57,4.33-1.69,7.74-3.11,10.61c-0.03,0.06-0.06,0.11-0.08,0.17c-3.61,7.12-9.12,10.89-12.77,17.4
							c-0.15,0.24-0.28,0.5-0.41,0.75c-1.79,3.41-1.19,6.47-1.19,6.47c0,0.32-0.02,0.65-0.06,0.97c-0.01,0.15-0.02,0.29-0.05,0.43
							c0,0.07-0.02,0.15-0.03,0.22c-0.02,0.14-0.04,0.28-0.07,0.41c-0.02,0.14-0.05,0.28-0.09,0.41c-0.04,0.19-0.1,0.38-0.15,0.56
							c0,0.02-0.01,0.03-0.02,0.05c-0.16,0.52-0.37,1.02-0.62,1.5c-0.01,0.03-0.02,0.06-0.04,0.09c-2.15,4.1-7.21,6.74-13.96,7.72
							c-2.06,0.31-4.28,0.46-6.62,0.44c-12.58-0.08-21.61-4.77-21.56-13.07c0,0,0.64-3.05-1.11-6.49
							c-5.57-10.98-16.48-14.22-16.35-35.57c0.14-21.8,17.85-36.07,39.58-35.94C191.67,47.65,209.2,62.14,209.06,83.94z"/>
						
							<linearGradient id="XMLID_28_" gradientUnits="userSpaceOnUse" x1="199.6431" y1="128.4682" x2="199.6431" y2="148.1602" gradientTransform="matrix(0.9996 -0.0273 0.0273 0.9996 -34.0546 -49.2463)">
							<stop  offset="3.946110e-03" style="stop-color:#FFFFFF;stop-opacity:0"/>
							<stop  offset="1" style="stop-color:#FDC870"/>
						</linearGradient>
						<path id="XMLID_1_" class="st25" d="M182.16,102.81c-0.69-4.14-5.34-9.62-8.75-4.23c-2.36,3.73-2.11,8.95-2.11,13.31v0.27
							c-0.39,0.03-0.78,0.05-1.16,0.06c-0.12,0-0.22,0.02-0.31,0.05c-0.09-0.03-0.19-0.05-0.31-0.06c-0.38-0.01-0.76-0.03-1.15-0.07
							v-0.25c0.06-3.77,0.07-7.63-1.07-11.22c-1.79-5.67-7.03-5.42-9.1-0.09c-1.97,5.08-0.13,8.99,3.35,11.31
							c1.37,0.91,3,1.58,4.75,1.97c0,0.1-0.01,0.2-0.01,0.29c-0.02,2.81-0.03,5.62-0.05,8.43c-0.02,2.5-0.03,5-0.05,7.5
							c-0.01,1.13-0.01,2.25-0.02,3.37c-0.01,1.67-0.02,3.33-0.03,4.99c0.67,0.05,1.36,0.09,2.05,0.11
							c0.01-1.72,0.02-3.43,0.03-5.15c0.01-1.14,0.02-2.27,0.03-3.41c0.01-2.5,0.03-5.01,0.05-7.51c0.01-2.76,0.03-5.53,0.05-8.29
							c0.38,0.04,0.77,0.07,1.16,0.08c0.11,0,0.21-0.01,0.31-0.04c0.09,0.03,0.19,0.05,0.3,0.04c0.39,0,0.78-0.03,1.17-0.06
							c-0.02,2.77-0.04,5.55-0.05,8.32c-0.02,2.51-0.04,5.01-0.05,7.52c-0.01,1.12-0.02,2.23-0.02,3.35
							c-0.01,0.26-0.01,0.53-0.01,0.79c-0.01,1.45-0.02,2.89-0.03,4.35v0.01c0.01,0,0.01,0,0.02,0c0.01,0,0.01,0,0.02,0
							c0.02,0,0.03,0,0.05-0.01c0.01,0.01,0.02,0,0.03,0h0.14c0.23-0.01,0.45-0.02,0.67-0.03c0.2-0.01,0.39-0.02,0.58-0.03
							c0.19-0.01,0.37-0.03,0.55-0.04c0.01-1.66,0.02-3.33,0.03-4.99c0-0.49,0.01-0.98,0.01-1.47c0-0.58,0.01-1.17,0.01-1.75
							c0.02-2.51,0.03-5.02,0.05-7.53c0.01-2.83,0.03-5.67,0.05-8.5v-0.27C178.79,112.86,183.23,109.25,182.16,102.81z
							 M159.5,104.63c-0.02-2.27,2.3-9.07,5.14-5.07c2.19,3.09,1.89,8.12,1.72,12.28C162.69,111.07,159.54,108.99,159.5,104.63z
							 M173.31,111.89c-0.12-4.17-0.36-9.2,1.87-12.26c2.9-3.97,5.13,2.86,5.08,5.13C180.16,109.12,176.98,111.16,173.31,111.89z"/>
						
							<linearGradient id="SVGID_12_" gradientUnits="userSpaceOnUse" x1="212.7062" y1="144.5092" x2="182.5529" y2="93.8514" gradientTransform="matrix(0.9996 -0.0273 0.0273 0.9996 -34.0546 -49.2463)">
							<stop  offset="3.946110e-03" style="stop-color:#FFFFFF;stop-opacity:0"/>
							<stop  offset="1" style="stop-color:#FFFFFF"/>
						</linearGradient>
						<path class="st26" d="M188.65,78.54c-10.6,6.51-28.05,6.99-38.98,1.06c-10.93-5.92-11.21-16-0.61-22.51
							c10.6-6.51,28.05-6.99,38.98-1.06C198.97,61.95,199.25,72.03,188.65,78.54z"/>
						<linearGradient id="SVGID_13_" gradientUnits="userSpaceOnUse" x1="148.8895" y1="104.1048" x2="116.3019" y2="88.3234">
							<stop  offset="3.946110e-03" style="stop-color:#FFFFFF;stop-opacity:0"/>
							<stop  offset="1" style="stop-color:#FFFFFF"/>
						</linearGradient>
						<path class="st27" d="M135.81,94.89c1.84,5.33,5.27,10.23,8.91,14.34c3.8,4.31,8.37,8.58,9.15,14.27
							c0.11,0.79,0.15,1.62,0.54,2.32c0.39,0.7,1.27,1.21,2,0.88c0.37-0.17,0.63-0.52,0.84-0.87c1.55-2.5,2.1-5.6,1.49-8.48
							c-0.98-4.63-4.56-7.99-7.55-11.42c-2.91-3.33-5.39-7.6-6.32-11.96c-0.58-2.74-0.76-5.55-1.35-8.29
							c-0.28-1.31-0.67-2.62-1.46-3.7c-0.79-1.08-2.05-1.89-3.38-1.85c-1.42,0.05-2.68,1.06-3.36,2.31
							c-0.68,1.25-0.85,2.71-0.88,4.13C134.37,89.43,134.89,92.21,135.81,94.89z"/>
						<linearGradient id="SVGID_14_" gradientUnits="userSpaceOnUse" x1="164.9411" y1="138.3592" x2="192.7097" y2="123.4068">
							<stop  offset="3.946110e-03" style="stop-color:#FFFFFF;stop-opacity:0"/>
							<stop  offset="1" style="stop-color:#FDC870"/>
						</linearGradient>
						<path class="st28" d="M209.06,83.94c0,1.32-0.05,2.58-0.15,3.8c-0.07,0.91-0.16,1.8-0.28,2.64c-0.58,4.17-1.7,7.63-3.11,10.61
							c-0.03,0.06-0.06,0.11-0.08,0.17c-3.61,7.12-9.12,10.89-12.77,17.4c-0.15,0.24-0.28,0.5-0.41,0.75
							c-1.79,3.41-1.19,6.47-1.19,6.47c0,0.32-0.02,0.65-0.06,0.97c-0.01,0.15-0.02,0.29-0.05,0.43c0,0.07-0.02,0.15-0.03,0.22
							c-0.02,0.14-0.04,0.28-0.07,0.41c-0.02,0.14-0.05,0.28-0.09,0.41c-0.04,0.19-0.1,0.38-0.15,0.56c0,0.02-0.01,0.03-0.02,0.05
							c-0.16,0.52-0.37,1.02-0.62,1.5c-0.01,0.03-0.02,0.06-0.04,0.09c1.12,1.54,1.72,3.21,1.67,4.95
							c-0.05,1.31-0.46,2.56-1.19,3.72c0.64,1.2,0.98,2.48,0.93,3.79c-0.13,4.01-3.7,7.44-9.1,9.47c0.23,0.77,0.34,1.57,0.32,2.39
							c-0.19,5.5-6.27,9.76-13.58,9.52c-0.41-0.02-0.82-0.04-1.23-0.09c1.59-1.91,3.38-3.74,4.29-5.54
							c3.16-6.28,3.56-13.59,3.93-20.48c0.01-0.13,0.02-0.26,0.02-0.39c0.32-5.81,0.63-11.62,0.95-17.42
							c0.03-0.58,0.07-1.17,0.29-1.7c0.68-1.58,2.7-1.94,4.38-2.34C200.01,111.96,207.49,98.33,209.06,83.94z"/>
						<path class="st23" d="M207.42,42.14c0,1.94-1.57,3.52-3.51,3.52s-3.52-1.57-3.52-3.52c0-1.94,1.57-3.52,3.52-3.52
							S207.42,40.2,207.42,42.14z"/>
						<path class="st23" d="M207.42,139.29c0,1.94-1.57,3.52-3.51,3.52s-3.52-1.57-3.52-3.52s1.57-3.52,3.52-3.52
							S207.42,137.35,207.42,139.29z"/>
						<circle class="st23" cx="140.23" cy="124.1" r="3.52"/>
						<circle class="st23" cx="211.28" cy="31.76" r="2.22"/>
						<circle class="st23" cx="207.42" cy="119.42" r="2.22"/>
						<circle class="st23" cx="145.97" cy="30.46" r="2.22"/>
						<circle class="st23" cx="213.5" cy="146.8" r="2.22"/>
						<circle class="st23" cx="134.42" cy="158.17" r="2.22"/>
					</g>
					<g>
						<linearGradient id="SVGID_15_" gradientUnits="userSpaceOnUse" x1="84.1159" y1="112.3779" x2="177.6533" y2="112.3779">
							<stop  offset="1.694780e-03" style="stop-color:#00D4C8"/>
							<stop  offset="1" style="stop-color:#00D2C7;stop-opacity:0"/>
						</linearGradient>
						<path class="st29" d="M222.47,163.84V30.46c0,7.8-5.15,15.59-15.45,21.54c-20.6,11.9-54.01,11.9-74.61,0
							c-10.3-5.95-15.45-13.74-15.45-21.54v133.38l0,0c0,7.8,5.15,15.59,15.45,21.54c20.6,11.9,54.01,11.9,74.61,0
							C217.32,179.43,222.47,171.63,222.47,163.84z"/>
						<linearGradient id="SVGID_16_" gradientUnits="userSpaceOnUse" x1="244.0517" y1="112.3779" x2="178.3952" y2="112.3779">
							<stop  offset="1.694780e-03" style="stop-color:#00D4C8"/>
							<stop  offset="1" style="stop-color:#00D2C7;stop-opacity:0"/>
						</linearGradient>
						<path class="st30" d="M222.47,163.84V30.46c0,7.8-5.15,15.59-15.45,21.54c-20.6,11.9-54.01,11.9-74.61,0
							c-10.3-5.95-15.45-13.74-15.45-21.54v133.38l0,0c0,7.8,5.15,15.59,15.45,21.54c20.6,11.9,54.01,11.9,74.61,0
							C217.32,179.43,222.47,171.63,222.47,163.84z"/>
						<linearGradient id="SVGID_17_" gradientUnits="userSpaceOnUse" x1="169.7086" y1="-18.4753" x2="169.7086" y2="85.9695">
							<stop  offset="1.694780e-03" style="stop-color:#00D4C8"/>
							<stop  offset="1" style="stop-color:#00D2C7;stop-opacity:0"/>
						</linearGradient>
						<ellipse class="st31" cx="169.71" cy="30.46" rx="52.76" ry="30.46"/>
					</g>
				</g>
				<path class="st2" d="M124.85,115.61L124.85,115.61c-2.23-1.28-3.6-3.66-3.6-6.23v-48.5c0-1.07,1.15-1.73,2.08-1.2l0,0
					c2.28,1.32,3.69,3.75,3.69,6.39v48.29C127.02,115.47,125.82,116.16,124.85,115.61z"/>
				<path class="st2" d="M124.85,137.43L124.85,137.43c-2.23-1.28-3.6-3.66-3.6-6.23v-6.89c0-1.07,1.15-1.73,2.08-1.2l0,0
					c2.28,1.32,3.69,3.75,3.69,6.39v6.68C127.02,137.29,125.82,137.99,124.85,137.43z"/>
			</g>
			<g>
				<path class="st13" d="M304.15,257.14v-31.92H232.8v31.92l0,0c0,5.27,3.48,10.54,10.45,14.56c13.93,8.04,36.52,8.04,50.45,0
					C300.66,267.68,304.15,262.41,304.15,257.14z"/>
				<linearGradient id="SVGID_18_" gradientUnits="userSpaceOnUse" x1="263.1522" y1="251.4756" x2="316.7829" y2="251.4756">
					<stop  offset="0" style="stop-color:#FFFFFF;stop-opacity:0"/>
					<stop  offset="1" style="stop-color:#662D8D"/>
				</linearGradient>
				<path class="st32" d="M304.15,257.14v-31.92H232.8v31.92l0,0c0,5.27,3.48,10.54,10.45,14.56c13.93,8.04,36.52,8.04,50.45,0
					C300.66,267.68,304.15,262.41,304.15,257.14z"/>
				<ellipse class="st2" cx="268.47" cy="225.22" rx="35.67" ry="20.59"/>
				<g>
					<linearGradient id="SVGID_19_" gradientUnits="userSpaceOnUse" x1="268.4738" y1="188.1351" x2="268.4738" y2="258.7543">
						<stop  offset="1.694780e-03" style="stop-color:#00D4C8"/>
						<stop  offset="1" style="stop-color:#00D2C7;stop-opacity:0"/>
					</linearGradient>
					<ellipse class="st33" cx="268.47" cy="221.22" rx="35.67" ry="20.59"/>
					<g>
						<path class="st23" d="M294.08,163.84c0,1.31-1.06,2.38-2.38,2.38s-2.38-1.06-2.38-2.38c0-1.31,1.06-2.38,2.38-2.38
							S294.08,162.52,294.08,163.84z"/>
						<circle class="st23" cx="289.32" cy="215.02" r="2.38"/>
						<path class="st23" d="M250.92,196.73c0,1.31-1.06,2.38-2.38,2.38s-2.38-1.06-2.38-2.38c0-1.31,1.06-2.38,2.38-2.38
							S250.92,195.42,250.92,196.73z"/>
						<path class="st23" d="M288.45,153.79c0,0.83-0.67,1.5-1.5,1.5s-1.5-0.67-1.5-1.5s0.67-1.5,1.5-1.5
							S288.45,152.96,288.45,153.79z"/>
						<path class="st23" d="M281.76,221.22c0,0.83-0.67,1.5-1.5,1.5s-1.5-0.67-1.5-1.5s0.67-1.5,1.5-1.5
							S281.76,220.39,281.76,221.22z"/>
						<path class="st23" d="M249.78,151.63c0,0.83-0.67,1.5-1.5,1.5s-1.5-0.67-1.5-1.5s0.67-1.5,1.5-1.5
							S249.78,150.81,249.78,151.63z"/>
						<path class="st23" d="M299.58,195.66c0,0.83-0.67,1.5-1.5,1.5s-1.5-0.67-1.5-1.5s0.67-1.5,1.5-1.5
							S299.58,194.83,299.58,195.66z"/>
						<path class="st23" d="M246.11,217.39c0,0.83-0.67,1.5-1.5,1.5c-0.83,0-1.5-0.67-1.5-1.5s0.67-1.5,1.5-1.5
							C245.44,215.89,246.11,216.56,246.11,217.39z"/>
						<g>
							<path class="st34" d="M290.85,189.91c0,0.11,0,0.23-0.01,0.34c-0.01,1.41-0.14,2.71-0.37,3.91
								c-0.14,0.73-0.32,1.42-0.54,2.07c-0.91,2.77-2.47,4.85-4.49,6.13l0.01,0.01l-0.18,0.11c-0.11,0.05-0.22,0.12-0.34,0.19
								l-5.51,3.2l-1.24-2.14c-2.15-0.3-4.48-1.1-6.93-2.52c-10.83-6.24-19.59-21.45-19.59-33.94c0-1.27,0.1-2.45,0.28-3.55
								c0.11-0.7,0.26-1.38,0.43-2.01c0.15-0.52,0.32-1.02,0.5-1.5l-1.29-2.23l5.57-3.21c0.19-0.11,0.37-0.22,0.56-0.32l0.3-0.18
								l0.01,0.03c2.26-1.09,5.01-1.31,8.07-0.51c0.63,0.17,1.29,0.37,1.96,0.63c1.05,0.4,2.12,0.91,3.21,1.54
								c0.08,0.04,0.17,0.1,0.25,0.15c0.48,0.28,0.96,0.59,1.45,0.92c0.94,0.62,1.87,1.32,2.77,2.09c0.4,0.34,0.81,0.69,1.2,1.06
								c0.8,0.73,1.57,1.52,2.33,2.34c0.34,0.37,0.69,0.77,1.02,1.17c0.7,0.81,1.36,1.65,2.01,2.52c0.29,0.41,0.59,0.83,0.87,1.25
								c0.61,0.87,1.18,1.78,1.72,2.7c0.26,0.44,0.52,0.88,0.76,1.32c0.52,0.94,1.01,1.89,1.45,2.85c0.22,0.47,0.43,0.92,0.62,1.39
								c0.43,1.01,0.81,2.01,1.16,3.02c0.18,0.5,0.33,0.99,0.48,1.49c0.33,1.07,0.61,2.15,0.81,3.21c0.12,0.52,0.22,1.06,0.3,1.58
								c0.19,1.17,0.32,2.33,0.37,3.47C290.84,188.98,290.85,189.45,290.85,189.91z"/>
							<g>
								<path class="st35" d="M268.04,154.42l-16.1,9.3l-1.31,0.76l-0.4-1.53l2.14-1.24l13.72-7.92
									C266.72,153.95,267.38,154.16,268.04,154.42z"/>
								<path class="st35" d="M272.94,157.04l-19.52,11.27l-0.4-1.53l18.47-10.66C271.98,156.39,272.46,156.71,272.94,157.04z"/>
								<path class="st35" d="M276.91,160.19l-20.69,11.94l-0.39-1.53l19.88-11.47C276.11,159.48,276.52,159.82,276.91,160.19z"/>
								<path class="st35" d="M280.26,163.7l-21.23,12.25l-0.4-1.53l20.61-11.89C279.58,162.91,279.93,163.3,280.26,163.7z"/>
								<path class="st35" d="M283.14,167.48l-21.31,12.3l-0.39-1.53l20.83-12.03C282.56,166.64,282.86,167.05,283.14,167.48z"/>
								<path class="st35" d="M285.62,171.5l-20.98,12.11l-0.4-1.53l20.62-11.9C285.12,170.62,285.38,171.06,285.62,171.5z"/>
								<path class="st35" d="M287.68,175.74l-20.25,11.7l-0.4-1.53l20.03-11.56C287.28,174.82,287.49,175.28,287.68,175.74z"/>
								<path class="st35" d="M289.32,180.25l-19.09,11.02l-0.39-1.53l19-10.98C289.02,179.26,289.17,179.75,289.32,180.25z"/>
								<path class="st35" d="M290.44,185.04l-17.4,10.06l-0.4-1.53l17.49-10.11C290.26,183.98,290.36,184.52,290.44,185.04z"/>
								<path class="st35" d="M290.85,189.91c0,0.11,0,0.23-0.01,0.34l-15,8.66l-0.4-1.53l15.37-8.87
									C290.84,188.98,290.85,189.45,290.85,189.91z"/>
								<path class="st35" d="M290.47,194.16c-0.14,0.73-0.32,1.42-0.54,2.07l-11.3,6.52l-0.39-1.53L290.47,194.16z"/>
							</g>
							
								<ellipse transform="matrix(0.866 -0.5 0.5 0.866 -55.3032 157.2047)" class="st36" cx="265.69" cy="181.8" rx="16" ry="27.71"/>
							<path class="st34" d="M269.27,166.19c-0.68,0.01-1.37,0.01-2.05,0c0.74,0.63,1.47,1.31,2.16,2.04l1.22-0.71
								C270.17,167.06,269.72,166.61,269.27,166.19z M251.93,163.72c-0.01,0.04-0.01,0.09-0.02,0.13c0.15,0.04,0.29,0.08,0.43,0.12
								c0.16-0.29,0.35-0.55,0.54-0.8L251.93,163.72z M269.27,166.19c-0.68,0.01-1.37,0.01-2.05,0c0.74,0.63,1.47,1.31,2.16,2.04
								l1.22-0.71C270.17,167.06,269.72,166.61,269.27,166.19z M251.91,163.85c0.15,0.04,0.29,0.08,0.43,0.12
								c0.16-0.29,0.35-0.55,0.54-0.8l-0.95,0.55C251.92,163.76,251.92,163.81,251.91,163.85z M281.65,190.12
								c-0.06-0.54-0.14-1.08-0.23-1.62c-0.19-1.08-0.44-2.16-0.75-3.26c-0.14-0.5-0.29-1-0.45-1.5c-0.33-1.01-0.71-2.03-1.13-3.03
								c-0.19-0.47-0.4-0.95-0.61-1.41c-0.44-0.97-0.92-1.93-1.43-2.86c-0.25-0.45-0.5-0.89-0.76-1.32
								c-0.54-0.92-1.12-1.82-1.73-2.69c-0.28-0.42-0.58-0.83-0.89-1.24c-0.64-0.88-1.32-1.72-2.02-2.52
								c-0.35-0.4-0.7-0.78-1.05-1.15c-0.43-0.46-0.88-0.91-1.33-1.33c-0.35-0.34-0.71-0.66-1.07-0.97
								c-0.41-0.37-0.82-0.71-1.24-1.04c-0.96-0.75-1.94-1.42-2.93-1.99c-0.02-0.02-0.04-0.03-0.06-0.04
								c-0.52-0.3-1.03-0.57-1.54-0.8c-1.44-0.68-2.84-1.13-4.14-1.3c-0.46-0.08-0.91-0.11-1.35-0.11c-0.7,0-1.33,0.08-1.91,0.23
								c-1.07,0.28-1.94,0.79-2.64,1.45l-0.17,0.17l-0.01,0.01c-0.5,0.51-0.91,1.1-1.24,1.74c-0.14,0.26-0.26,0.54-0.38,0.81v0.01
								c-0.89,2.17-1.05,4.62-1.05,6.13c0,10.71,7.5,24.16,16.65,30.18c0.4,0.28,0.81,0.53,1.22,0.77c2.51,1.45,4.94,2.22,7.03,2.22
								c0.74,0,1.42-0.09,2.02-0.26c0.8-0.22,1.49-0.58,2.07-1.04c0.3-0.22,0.57-0.47,0.81-0.75c0.46-0.5,0.83-1.07,1.14-1.68v-0.01
								c0.7-1.4,1.05-2.98,1.22-4.39c0.08-0.66,0.12-1.29,0.13-1.83c0.01-0.21,0.01-0.41,0.01-0.59
								C281.84,192.13,281.78,191.13,281.65,190.12z M280.17,196.41c-0.35,1.83-1.08,3.78-2.6,4.91c-0.8,0.59-1.83,0.96-3.13,0.96
								c-0.45,0-0.91-0.04-1.4-0.12h-0.01c-1.31-0.22-2.72-0.74-4.21-1.53h-0.02c-0.23-0.12-0.47-0.24-0.7-0.38
								c-9.32-5.38-17.19-19.01-17.19-29.76c0-1.3,0.13-3.41,0.84-5.28c0.16-0.43,0.36-0.85,0.59-1.24c0.16-0.29,0.35-0.55,0.54-0.8
								l0.01-0.01c0.73-0.89,1.72-1.55,3.07-1.77h0.01c0.3-0.04,0.62-0.07,0.97-0.07c1.21,0,2.57,0.3,4.01,0.88
								c0.55,0.22,1.11,0.49,1.68,0.79c0.22,0.11,0.43,0.23,0.65,0.36c0.81,0.47,1.6,0.99,2.38,1.58c0.43,0.32,0.86,0.66,1.28,1.02
								c0.1,0.07,0.18,0.14,0.27,0.24h0.01c0.74,0.63,1.47,1.31,2.16,2.04c0.37,0.37,0.72,0.75,1.06,1.14
								c0.71,0.79,1.39,1.63,2.05,2.5c0.3,0.4,0.6,0.82,0.89,1.24c0.61,0.87,1.19,1.77,1.73,2.69c0.26,0.43,0.52,0.87,0.76,1.32
								c0.51,0.94,0.99,1.9,1.42,2.87c0.22,0.46,0.42,0.93,0.61,1.4c0.42,1.01,0.79,2.03,1.1,3.05v0.01c0.17,0.51,0.31,1,0.45,1.5
								c0.29,1.1,0.53,2.2,0.69,3.28c0.09,0.55,0.16,1.1,0.21,1.64c0.07,0.76,0.11,1.51,0.11,2.24c0,0.4-0.01,0.88-0.05,1.41
								C280.37,195.11,280.29,195.75,280.17,196.41z M251.93,163.72c-0.01,0.04-0.01,0.09-0.02,0.13c0.15,0.04,0.29,0.08,0.43,0.12
								c0.16-0.29,0.35-0.55,0.54-0.8L251.93,163.72z M269.27,166.19c-0.68,0.01-1.37,0.01-2.05,0c0.74,0.63,1.47,1.31,2.16,2.04
								l1.22-0.71C270.17,167.06,269.72,166.61,269.27,166.19z"/>
							<g>
								<path class="st34" d="M271.15,185.29c-0.2-0.47-0.44-0.92-0.71-1.35c-0.57-0.91-1.29-1.74-2.08-2.48
									c-0.4-0.37-0.81-0.73-1.23-1.05c-0.31-0.25-0.62-0.48-0.93-0.7c-0.75-0.52-1.36-0.96-1.76-1.44
									c-0.32-0.38-0.5-0.78-0.5-1.26c0-0.08,0.01-0.16,0.03-0.22c0.07-0.27,0.29-0.37,0.59-0.34c0.33,0.02,0.78,0.2,1.23,0.46
									c0.16,0.09,0.32,0.19,0.48,0.3c0.9,0.57,1.72,1.29,2.46,2.28c0.09,0.11,0.17,0.22,0.25,0.34l1.51-1.36l0.02-0.02h0.01
									l0.37-0.33c-0.63-0.93-1.28-1.73-1.98-2.43c-0.38-0.38-0.78-0.73-1.19-1.06c-0.12-0.1-0.25-0.2-0.37-0.29v-2l-1.03-0.59
									l-1.53-0.88l-0.72-0.42v2.05c-0.53-0.19-1.04-0.31-1.5-0.35h-0.01c-1.08-0.08-1.92,0.3-2.28,1.32
									c-0.13,0.36-0.2,0.79-0.2,1.31c0,0.19,0.01,0.37,0.02,0.55c0.11,1.75,0.75,3.16,1.7,4.38l0.01,0.01
									c0.01,0.02,0.02,0.04,0.03,0.05c0.67,0.85,1.49,1.61,2.39,2.31c0.43,0.34,0.89,0.67,1.35,0.98
									c0.02,0.02,0.03,0.03,0.05,0.04c1.25,0.85,2,1.65,2.2,2.35c0.06,0.14,0.08,0.27,0.08,0.4c0,0.49-0.27,0.71-0.72,0.68
									c-0.37-0.01-0.85-0.19-1.42-0.52c-1.15-0.66-2.65-1.8-4-4.08l-2.12,1.58c1.42,2.58,2.78,4.06,4.42,5.23v2.12l3.28,1.89
									v-2.18c1.05,0.4,2.03,0.54,2.79,0.33c0.86-0.24,1.44-0.94,1.56-2.23v-0.01c0.02-0.17,0.03-0.35,0.03-0.54
									C271.73,187.12,271.52,186.17,271.15,185.29z"/>
							</g>
						</g>
					</g>
					<g>
						<linearGradient id="SVGID_20_" gradientUnits="userSpaceOnUse" x1="210.6013" y1="193.7078" x2="273.8455" y2="193.7078">
							<stop  offset="1.694780e-03" style="stop-color:#00D4C8"/>
							<stop  offset="1" style="stop-color:#00D2C7;stop-opacity:0"/>
						</linearGradient>
						<path class="st37" d="M304.15,221.22V145.6c0,5.27-3.48,10.54-10.45,14.56c-13.93,8.04-36.52,8.04-50.45,0
							c-6.97-4.02-10.45-9.29-10.45-14.56v75.62l0,0c0,5.27,3.48,10.54,10.45,14.56c13.93,8.04,36.52,8.04,50.45,0
							C300.66,231.76,304.15,226.49,304.15,221.22z"/>
						<linearGradient id="SVGID_21_" gradientUnits="userSpaceOnUse" x1="318.74" y1="193.7078" x2="274.3471" y2="193.7078">
							<stop  offset="1.694780e-03" style="stop-color:#00D4C8"/>
							<stop  offset="1" style="stop-color:#00D2C7;stop-opacity:0"/>
						</linearGradient>
						<path class="st38" d="M304.15,221.22V145.6c0,5.27-3.48,10.54-10.45,14.56c-13.93,8.04-36.52,8.04-50.45,0
							c-6.97-4.02-10.45-9.29-10.45-14.56v75.62l0,0c0,5.27,3.48,10.54,10.45,14.56c13.93,8.04,36.52,8.04,50.45,0
							C300.66,231.76,304.15,226.49,304.15,221.22z"/>
						<linearGradient id="SVGID_22_" gradientUnits="userSpaceOnUse" x1="268.4738" y1="112.5122" x2="268.4738" y2="183.1314">
							<stop  offset="1.694780e-03" style="stop-color:#00D4C8"/>
							<stop  offset="1" style="stop-color:#00D2C7;stop-opacity:0"/>
						</linearGradient>
						<ellipse class="st39" cx="268.47" cy="145.6" rx="35.67" ry="20.59"/>
					</g>
				</g>
				<path class="st2" d="M238.14,188.61L238.14,188.61c-1.5-0.87-2.43-2.47-2.43-4.21v-21.85c0-0.72,0.78-1.17,1.41-0.81l0,0
					c1.54,0.89,2.49,2.54,2.49,4.32v21.7C239.61,188.52,238.8,188.99,238.14,188.61z"/>
				<path class="st2" d="M238.14,203.37L238.14,203.37c-1.5-0.87-2.43-2.47-2.43-4.21v-4.66c0-0.72,0.78-1.17,1.41-0.81l0,0
					c1.54,0.89,2.49,2.54,2.49,4.32v4.51C239.61,203.27,238.8,203.74,238.14,203.37z"/>
			</g>
			<g>
				<path class="st13" d="M106.51,157.4v-31.92H35.17v31.92l0,0c0,5.27,3.48,10.54,10.45,14.56c13.93,8.04,36.52,8.04,50.45,0
					C103.03,167.95,106.51,162.67,106.51,157.4z"/>
				<linearGradient id="SVGID_23_" gradientUnits="userSpaceOnUse" x1="65.521" y1="151.7439" x2="119.1516" y2="151.7439">
					<stop  offset="0" style="stop-color:#FFFFFF;stop-opacity:0"/>
					<stop  offset="1" style="stop-color:#662D8D"/>
				</linearGradient>
				<path class="st40" d="M106.51,157.4v-31.92H35.17v31.92l0,0c0,5.27,3.48,10.54,10.45,14.56c13.93,8.04,36.52,8.04,50.45,0
					C103.03,167.95,106.51,162.67,106.51,157.4z"/>
				<ellipse class="st2" cx="70.84" cy="125.49" rx="35.67" ry="20.59"/>
				<g>
					<linearGradient id="SVGID_24_" gradientUnits="userSpaceOnUse" x1="70.8426" y1="88.4034" x2="70.8426" y2="159.0226">
						<stop  offset="1.694780e-03" style="stop-color:#00D4C8"/>
						<stop  offset="1" style="stop-color:#00D2C7;stop-opacity:0"/>
					</linearGradient>
					<ellipse class="st41" cx="70.84" cy="121.49" rx="35.67" ry="20.59"/>
					<g>
						<circle class="st42" cx="94.07" cy="64.11" r="2.38"/>
						<circle class="st42" cx="91.69" cy="115.28" r="2.38"/>
						<path class="st42" d="M53.29,97c0,1.31-1.06,2.38-2.38,2.38c-1.31,0-2.38-1.06-2.38-2.38c0-1.31,1.06-2.38,2.38-2.38
							C52.22,94.62,53.29,95.69,53.29,97z"/>
						<path class="st42" d="M90.81,54.05c0,0.83-0.67,1.5-1.5,1.5s-1.5-0.67-1.5-1.5s0.67-1.5,1.5-1.5S90.81,53.23,90.81,54.05z"/>
						<path class="st42" d="M84.13,121.49c0,0.83-0.67,1.5-1.5,1.5s-1.5-0.67-1.5-1.5s0.67-1.5,1.5-1.5S84.13,120.66,84.13,121.49z"
							/>
						<path class="st42" d="M52.15,51.9c0,0.83-0.67,1.5-1.5,1.5s-1.5-0.67-1.5-1.5s0.67-1.5,1.5-1.5S52.15,51.07,52.15,51.9z"/>
						<path class="st42" d="M101.95,95.93c0,0.83-0.67,1.5-1.5,1.5s-1.5-0.67-1.5-1.5s0.67-1.5,1.5-1.5S101.95,95.1,101.95,95.93z"
							/>
						<path class="st42" d="M48.48,117.66c0,0.83-0.67,1.5-1.5,1.5s-1.5-0.67-1.5-1.5s0.67-1.5,1.5-1.5S48.48,116.83,48.48,117.66z"
							/>
						<g>
							<path class="st42" d="M93.22,90.17c0,0.11,0,0.23-0.01,0.34c-0.01,1.41-0.14,2.71-0.37,3.91c-0.14,0.73-0.32,1.42-0.54,2.07
								c-0.91,2.77-2.47,4.85-4.49,6.13l0.01,0.01l-0.18,0.11c-0.11,0.05-0.22,0.12-0.34,0.19l-5.51,3.2L80.55,104
								c-2.15-0.3-4.48-1.1-6.93-2.52c-10.83-6.24-19.59-21.45-19.59-33.94c0-1.27,0.1-2.45,0.28-3.55c0.11-0.7,0.26-1.38,0.43-2.01
								c0.15-0.52,0.32-1.02,0.5-1.5l-1.3-2.23l5.57-3.21c0.19-0.11,0.37-0.22,0.56-0.32l0.3-0.18l0.01,0.03
								c2.26-1.09,5.01-1.31,8.07-0.51c0.63,0.17,1.29,0.37,1.96,0.63c1.05,0.4,2.12,0.91,3.21,1.54c0.08,0.04,0.17,0.1,0.25,0.15
								c0.48,0.28,0.96,0.59,1.45,0.92c0.94,0.62,1.87,1.32,2.77,2.09c0.4,0.34,0.81,0.69,1.2,1.06c0.8,0.73,1.57,1.52,2.33,2.34
								c0.34,0.37,0.69,0.77,1.02,1.17c0.7,0.81,1.36,1.65,2.01,2.52c0.29,0.41,0.59,0.83,0.87,1.25c0.61,0.87,1.18,1.78,1.72,2.7
								c0.26,0.44,0.52,0.88,0.76,1.32c0.52,0.94,1.01,1.89,1.45,2.85c0.22,0.47,0.43,0.92,0.62,1.39c0.43,1.01,0.81,2.01,1.16,3.02
								c0.18,0.5,0.33,0.99,0.48,1.49c0.33,1.07,0.61,2.15,0.81,3.21c0.12,0.52,0.22,1.06,0.3,1.58c0.19,1.17,0.32,2.33,0.37,3.47
								C93.21,89.25,93.22,89.72,93.22,90.17z"/>
							<linearGradient id="SVGID_25_" gradientUnits="userSpaceOnUse" x1="68.384" y1="68.7742" x2="89.2792" y2="109.0022">
								<stop  offset="0" style="stop-color:#FFFFFF;stop-opacity:0"/>
								<stop  offset="1" style="stop-color:#662D8D"/>
							</linearGradient>
							<path class="st43" d="M93.22,90.17c0,0.11,0,0.23-0.01,0.34c-0.01,1.41-0.14,2.71-0.37,3.91c-0.14,0.73-0.32,1.42-0.54,2.07
								c-0.91,2.77-2.47,4.85-4.49,6.13l0.01,0.01l-0.18,0.11c-0.11,0.05-0.22,0.12-0.34,0.19l-5.51,3.2L80.55,104
								c-2.15-0.3-4.48-1.1-6.93-2.52c-10.83-6.24-19.59-21.45-19.59-33.94c0-1.27,0.1-2.45,0.28-3.55c0.11-0.7,0.26-1.38,0.43-2.01
								c0.15-0.52,0.32-1.02,0.5-1.5l-1.3-2.23l5.57-3.21c0.19-0.11,0.37-0.22,0.56-0.32l0.3-0.18l0.01,0.03
								c2.26-1.09,5.01-1.31,8.07-0.51c0.63,0.17,1.29,0.37,1.96,0.63c1.05,0.4,2.12,0.91,3.21,1.54c0.08,0.04,0.17,0.1,0.25,0.15
								c0.48,0.28,0.96,0.59,1.45,0.92c0.94,0.62,1.87,1.32,2.77,2.09c0.4,0.34,0.81,0.69,1.2,1.06c0.8,0.73,1.57,1.52,2.33,2.34
								c0.34,0.37,0.69,0.77,1.02,1.17c0.7,0.81,1.36,1.65,2.01,2.52c0.29,0.41,0.59,0.83,0.87,1.25c0.61,0.87,1.18,1.78,1.72,2.7
								c0.26,0.44,0.52,0.88,0.76,1.32c0.52,0.94,1.01,1.89,1.45,2.85c0.22,0.47,0.43,0.92,0.62,1.39c0.43,1.01,0.81,2.01,1.16,3.02
								c0.18,0.5,0.33,0.99,0.48,1.49c0.33,1.07,0.61,2.15,0.81,3.21c0.12,0.52,0.22,1.06,0.3,1.58c0.19,1.17,0.32,2.33,0.37,3.47
								C93.21,89.25,93.22,89.72,93.22,90.17z"/>
							<ellipse transform="matrix(0.866 -0.5 0.5 0.866 -31.915 45.026)" class="st44" cx="68.06" cy="82.07" rx="16" ry="27.71"/>
							
								<ellipse transform="matrix(0.866 -0.5 0.5 0.866 -31.9151 45.0261)" class="st45" cx="68.06" cy="82.07" rx="12.62" ry="21.85"/>
							<ellipse transform="matrix(0.866 -0.5 0.5 0.866 -31.915 45.026)" class="st45" cx="68.06" cy="82.07" rx="8.8" ry="15.24"/>
							<path class="st45" d="M74.44,85.75c0,4.07-2.85,5.71-6.38,3.68c-3.52-2.03-6.38-6.98-6.38-11.04s2.85-5.71,6.38-3.68
								C71.58,76.74,74.44,81.68,74.44,85.75z"/>
							<path class="st2" d="M70.57,83.51c0,1.6-1.12,2.25-2.51,1.45c-1.39-0.8-2.51-2.74-2.51-4.34c0-1.6,1.12-2.25,2.51-1.45
								C69.45,79.97,70.57,81.91,70.57,83.51z"/>
						</g>
					</g>
					<g>
						<linearGradient id="SVGID_26_" gradientUnits="userSpaceOnUse" x1="12.9701" y1="93.9761" x2="76.2142" y2="93.9761">
							<stop  offset="1.694780e-03" style="stop-color:#00D4C8"/>
							<stop  offset="1" style="stop-color:#00D2C7;stop-opacity:0"/>
						</linearGradient>
						<path class="st46" d="M106.51,121.49V45.87c0,5.27-3.48,10.54-10.45,14.56c-13.93,8.04-36.52,8.04-50.45,0
							c-6.97-4.02-10.45-9.29-10.45-14.56v75.62l0,0c0,5.27,3.48,10.54,10.45,14.56c13.93,8.04,36.52,8.04,50.45,0
							C103.03,132.03,106.51,126.76,106.51,121.49z"/>
						<linearGradient id="SVGID_27_" gradientUnits="userSpaceOnUse" x1="121.1087" y1="93.9761" x2="76.7159" y2="93.9761">
							<stop  offset="1.694780e-03" style="stop-color:#00D4C8"/>
							<stop  offset="1" style="stop-color:#00D2C7;stop-opacity:0"/>
						</linearGradient>
						<path class="st47" d="M106.51,121.49V45.87c0,5.27-3.48,10.54-10.45,14.56c-13.93,8.04-36.52,8.04-50.45,0
							c-6.97-4.02-10.45-9.29-10.45-14.56v75.62l0,0c0,5.27,3.48,10.54,10.45,14.56c13.93,8.04,36.52,8.04,50.45,0
							C103.03,132.03,106.51,126.76,106.51,121.49z"/>
						<linearGradient id="SVGID_28_" gradientUnits="userSpaceOnUse" x1="70.8426" y1="12.7805" x2="70.8426" y2="83.3997">
							<stop  offset="1.694780e-03" style="stop-color:#00D4C8"/>
							<stop  offset="1" style="stop-color:#00D2C7;stop-opacity:0"/>
						</linearGradient>
						<ellipse class="st48" cx="70.84" cy="45.87" rx="35.67" ry="20.59"/>
					</g>
				</g>
				<path class="st2" d="M40.51,88.88L40.51,88.88c-1.5-0.87-2.43-2.47-2.43-4.21V62.82c0-0.72,0.78-1.17,1.4-0.81l0,0
					c1.54,0.89,2.49,2.54,2.49,4.32v21.7C41.98,88.79,41.17,89.26,40.51,88.88z"/>
				<path class="st2" d="M40.51,103.63L40.51,103.63c-1.5-0.87-2.43-2.47-2.43-4.21v-4.66c0-0.72,0.78-1.17,1.4-0.81l0,0
					c1.54,0.89,2.49,2.54,2.49,4.32v4.51C41.98,103.54,41.17,104.01,40.51,103.63z"/>
			</g>
			<g>
				<path class="st49" d="M179.65,211.77c0,0-5.89,6.26-6.27,12.49l1.15,2.45l2.37-1.73c0,0,1.68-8.18,4.74-10.63L179.65,211.77z"/>
				<path class="st50" d="M193.47,285.15c0,0,0.41,3.87-1.49,3.67c-2.21-0.23-9.05-4.84-7.53-6.29c1.52-1.45,7.23,1.18,7.23,1.18
					L193.47,285.15z"/>
				<path class="st50" d="M181.31,290.88c0,0,0.41,3.87-1.49,3.67c-2.21-0.23-9.05-4.84-7.53-6.29c1.52-1.45,7.23,1.18,7.23,1.18
					L181.31,290.88z"/>
				<rect x="183.05" y="194.28" class="st51" width="4.06" height="5.73"/>
				<path class="st49" d="M178.73,225.19c0,0-6.53,14.91-1.63,66.06c0.03,0.26,0.17,0.5,0.4,0.63c0.86,0.49,3.03,1.37,4.15-1.52
					c0.03-0.08,0.05-0.16,0.05-0.24l4.25-53.59c0.03-0.86,0.48-0.9,0.57-0.04l2.61,48.99c0.02,0.37,0.25,0.69,0.6,0.82
					c1.14,0.43,3.65,0.93,4.12-2.67c0,0,4.44-53-0.74-60.18L178.73,225.19z"/>
				<path class="st50" d="M193.11,221.81c-0.12,0.22-0.26,0.43-0.43,0.61c-1.49,1.52-5.49,4.27-13.47,1.41
					c-0.18-0.06-0.34-0.16-0.48-0.28v1.64c0.14,0.12,0.3,0.22,0.48,0.28c7.98,2.85,11.99,0.11,13.47-1.41
					c0.18-0.18,0.32-0.39,0.43-0.61V221.81z"/>
				<path class="st2" d="M209.34,173.21c0,0,0-3.47,0.48-3.54c0.33-0.05,0.32,1.1,0.32,1.1s0.39-2.58,0.95-2.43
					c0.2,0.05-0.05,1.63-0.05,1.63s0.24-0.91,1.68,0c0.45,0.28,0.34,1.13-1.37,3.82L209.34,173.21z"/>
				<path class="st52" d="M192.25,196.47c0,0,12.15-1.05,16.95-23.54c0,0,1.29-0.24,2.33,0.82c0,0-0.71,27.04-17.53,32.23
					L192.25,196.47z"/>
				<path class="st53" d="M183.05,198.07l4.06-0.92l6.4-0.83c1.57-0.21,2.7,2.06,2.81,4.49c0.21,4.62-2.88,20.32-2.88,20.32
					c-0.04,0.63-0.3,1.24-0.74,1.69c-1.48,1.52-5.48,4.29-13.49,1.42c-0.51-0.18-0.88-0.63-0.95-1.16l-2.98-18.57
					c-0.16-0.97,0.26-1.94,1.06-2.5L183.05,198.07z"/>
				<path class="st2" d="M178,187.07c0,0,0.49,5.55,2.78,8.39c2.29,2.84,6.73-1.85,7.39-3.22c0.66-1.37,1.73-9.94-5.15-9.94
					C178.55,182.3,177.77,185.08,178,187.07z"/>
				<path class="st49" d="M184.63,190.52c0,0-2.31-1.64-3.17-4.43c0,0-0.51-0.3-3.33,2.06c0,0-3.18-0.01-1.7-3.36
					c1.48-3.35,7.59-7.59,10.53-4.24c0,0,5.6-0.93,4.52,6.32c-1.43,9.55-5.9,7.98-7.02,5.8
					C183.36,190.53,184.63,190.52,184.63,190.52z"/>
				<path class="st2" d="M183.19,189.4c0,0,0.93-1.83,1.69-0.74c0.76,1.09-0.16,3.29-1.83,3.58L183.19,189.4z"/>
				<polygon class="st49" points="157.86,196.42 166.48,205 175.13,199.86 166.48,191.01 				"/>
				<polyline class="st54" points="165.75,201.01 165.75,199.08 167.57,199.08 167.57,195.03 				"/>
				<polyline class="st54" points="165.85,196.15 167.47,194.54 169.28,196.36 				"/>
				<path class="st2" d="M161.6,200.13c-0.03-0.05,0.68-0.78,1.21-1.33c0.16-0.16,0.42,0,0.36,0.21l-0.36,1.27
					c0,0,1.83-0.51,0.8,2.51l-1.78,0.48L161.6,200.13z"/>
				<path class="st52" d="M163.78,202.75c0,0,9.45,16.97,3.83,18.04c-5.62,1.06-5.89-17.48-5.89-17.48S162.26,202.53,163.78,202.75z
					"/>
				<path class="st52" d="M176.33,202.01c0,0-2.54,1.27-6.06,6.29c-4.79,6.82-6.99,10.89-2.54,12.39c1.13,0.38,8.9-7.77,8.9-7.77
					S179.78,206.16,176.33,202.01z"/>
				<path class="st52" d="M182.23,198.55l0.82-1.4c0,0,1.39-0.85,4.06-0.91l0.97,0.83C188.08,197.06,187.87,198.03,182.23,198.55z"
					/>
			</g>
			<g>
				<polygon class="st13" points="99.36,181.77 68.67,251.01 65.88,249.35 65.88,209.11 				"/>
				<polygon class="st13" points="102.15,183.43 102.15,231.67 68.67,251.01 68.67,210.77 				"/>
				<linearGradient id="SVGID_29_" gradientUnits="userSpaceOnUse" x1="69.0698" y1="184.5411" x2="106.9544" y2="260.3102">
					<stop  offset="0" style="stop-color:#FFFFFF;stop-opacity:0"/>
					<stop  offset="1" style="stop-color:#662D8D"/>
				</linearGradient>
				<polygon class="st55" points="102.15,183.43 102.15,231.67 68.67,251.01 68.67,210.77 				"/>
			</g>
			<g>
				<polygon class="st13" points="153.28,212.85 122.59,282.09 119.8,280.43 119.8,240.2 				"/>
				<polygon class="st13" points="156.07,214.51 156.07,262.76 122.59,282.09 122.59,241.86 				"/>
				<linearGradient id="SVGID_30_" gradientUnits="userSpaceOnUse" x1="94.8621" y1="248.3013" x2="197.8126" y2="248.3013">
					<stop  offset="0" style="stop-color:#FFFFFF;stop-opacity:0"/>
					<stop  offset="1" style="stop-color:#662D8D"/>
				</linearGradient>
				<polygon class="st56" points="156.07,214.51 156.07,262.76 122.59,282.09 122.59,241.86 				"/>
			</g>
			<polygon class="st13" points="122.59,244.55 65.88,211.81 156.07,214.51 156.07,217.21 			"/>
			<linearGradient id="SVGID_31_" gradientUnits="userSpaceOnUse" x1="94.862" y1="228.1788" x2="197.812" y2="228.1788">
				<stop  offset="0" style="stop-color:#FFFFFF;stop-opacity:0"/>
				<stop  offset="1" style="stop-color:#662D8D"/>
			</linearGradient>
			<polygon class="st57" points="122.59,244.55 65.88,211.81 156.07,214.51 156.07,217.21 			"/>
			<polygon class="st2" points="122.59,241.86 65.88,209.11 99.36,181.77 156.07,214.51 			"/>
			<polygon class="st49" points="121.82,237.35 72.47,208.85 100.13,186.26 149.47,214.77 			"/>
			<linearGradient id="SVGID_32_" gradientUnits="userSpaceOnUse" x1="107.0793" y1="188.6901" x2="104.4315" y2="214.7905">
				<stop  offset="3.946110e-03" style="stop-color:#FFFFFF;stop-opacity:0"/>
				<stop  offset="1" style="stop-color:#FDC870"/>
			</linearGradient>
			<path class="st58" d="M109.34,212.39l-18.81-10.87c-0.43-0.25-0.48-0.86-0.09-1.18l9.91-8.09c0.53-0.43,1.27-0.49,1.86-0.15
				l18.55,10.72c0.56,0.32,0.62,1.11,0.12,1.51l-9.68,7.91C110.68,212.67,109.93,212.73,109.34,212.39z"/>
			<linearGradient id="SVGID_33_" gradientUnits="userSpaceOnUse" x1="98.1518" y1="204.6914" x2="91.5009" y2="217.3051">
				<stop  offset="0" style="stop-color:#BA68C8;stop-opacity:0"/>
				<stop  offset="1" style="stop-color:#BA68C8"/>
			</linearGradient>
			<path class="st59" d="M100.91,219.13L82.1,208.26c-0.43-0.25-0.48-0.86-0.09-1.18l4.9-3.91c0.53-0.43,1.27-0.49,1.86-0.15
				l18.55,10.72c0.56,0.32,0.62,1.11,0.12,1.51l-4.67,3.72C102.24,219.41,101.5,219.47,100.91,219.13z"/>
			<g>
				<linearGradient id="SVGID_34_" gradientUnits="userSpaceOnUse" x1="113.7682" y1="214.5043" x2="107.579" y2="226.2425">
					<stop  offset="1.694780e-03" style="stop-color:#00D4C8"/>
					<stop  offset="1" style="stop-color:#00D2C7;stop-opacity:0"/>
				</linearGradient>
				<path class="st60" d="M110.42,224.82l-6.13-3.51c-0.43-0.25-0.48-0.86-0.09-1.18l4.9-3.91c0.53-0.43,1.27-0.49,1.86-0.15
					l5.87,3.36c0.56,0.32,0.62,1.11,0.12,1.51l-4.67,3.72C111.75,225.1,111.01,225.16,110.42,224.82z"/>
				<linearGradient id="SVGID_35_" gradientUnits="userSpaceOnUse" x1="123.5336" y1="214.2645" x2="117.5482" y2="233.7173">
					<stop  offset="1.694780e-03" style="stop-color:#EF5350"/>
					<stop  offset="1" style="stop-color:#EF5350;stop-opacity:0"/>
				</linearGradient>
				<path class="st61" d="M120.02,230.25l-6.54-3.87c-0.43-0.25-0.48-0.86-0.09-1.18l4.9-3.91c0.53-0.43,1.27-0.49,1.86-0.15
					l6.28,3.72c0.56,0.32,0.62,1.11,0.12,1.51l-4.67,3.72C121.35,230.53,120.61,230.59,120.02,230.25z"/>
			</g>
			<polygon class="st13" points="122.59,244.55 122.59,241.86 65.88,209.11 65.88,211.81 			"/>
			<path class="st62" d="M94.23,200.94c0.05-0.1,9.13-0.73,9.13-0.73l1.76,3.17h10.94l-2.37-1.13"/>
			<line class="st62" x1="116.05" y1="203.38" x2="116.05" y2="205.26"/>
			<ellipse class="st44" cx="126.2" cy="207.14" rx="1.14" ry="0.66"/>
			<ellipse class="st63" cx="129.5" cy="209.02" rx="1.14" ry="0.66"/>
			<path class="st44" d="M133.6,211.36c-0.45,0.26-1.17,0.26-1.61,0c-0.44-0.26-0.44-0.67,0-0.93c0.45-0.26,1.17-0.26,1.61,0
				C134.05,210.69,134.05,211.1,133.6,211.36z"/>
			<path class="st44" d="M136.9,213.24c-0.44,0.26-1.17,0.26-1.61,0c-0.45-0.26-0.45-0.67,0-0.93c0.45-0.26,1.17-0.26,1.61,0
				C137.34,212.57,137.34,212.98,136.9,213.24z"/>
			<path class="st44" d="M140.19,215.12c-0.45,0.26-1.17,0.26-1.61,0c-0.45-0.26-0.45-0.67,0-0.93c0.44-0.26,1.17-0.26,1.61,0
				C140.64,214.45,140.64,214.86,140.19,215.12z"/>
			<path class="st44" d="M124.3,209.66c-0.44,0.26-1.17,0.26-1.61,0c-0.45-0.26-0.45-0.67,0-0.93c0.44-0.26,1.17-0.26,1.61,0
				C124.74,208.99,124.74,209.41,124.3,209.66z"/>
			<path class="st44" d="M127.6,211.54c-0.45,0.26-1.17,0.26-1.61,0c-0.45-0.26-0.45-0.67,0-0.93c0.45-0.26,1.17-0.26,1.61,0
				C128.04,210.87,128.04,211.29,127.6,211.54z"/>
			<path class="st44" d="M130.89,213.42c-0.44,0.26-1.17,0.26-1.61,0c-0.44-0.26-0.44-0.67,0-0.93c0.45-0.26,1.17-0.26,1.61,0
				C131.34,212.75,131.34,213.16,130.89,213.42z"/>
			<path class="st63" d="M134.19,215.3c-0.45,0.26-1.17,0.26-1.61,0c-0.45-0.26-0.45-0.67,0-0.93c0.44-0.26,1.17-0.26,1.61,0
				C134.63,214.63,134.63,215.04,134.19,215.3z"/>
			<path class="st63" d="M137.48,217.18c-0.45,0.26-1.17,0.26-1.61,0c-0.45-0.26-0.45-0.67,0-0.93c0.45-0.26,1.17-0.26,1.61,0
				C137.93,216.51,137.93,216.92,137.48,217.18z"/>
			<path class="st63" d="M121.59,211.72c-0.44,0.26-1.17,0.26-1.61,0c-0.44-0.26-0.44-0.67,0-0.93c0.44-0.26,1.17-0.26,1.61,0
				C122.03,211.05,122.03,211.47,121.59,211.72z"/>
			<path class="st44" d="M124.88,213.6c-0.44,0.26-1.17,0.26-1.61,0c-0.45-0.26-0.45-0.67,0-0.93c0.44-0.26,1.17-0.26,1.61,0
				C125.33,212.93,125.33,213.35,124.88,213.6z"/>
			<ellipse class="st63" cx="127.37" cy="215.02" rx="1.14" ry="0.66"/>
			<path class="st44" d="M131.47,217.36c-0.45,0.26-1.17,0.26-1.61,0c-0.44-0.26-0.44-0.67,0-0.93c0.45-0.26,1.17-0.26,1.61,0
				C131.92,216.69,131.92,217.1,131.47,217.36z"/>
			<path class="st44" d="M134.77,219.24c-0.44,0.26-1.17,0.26-1.61,0c-0.45-0.26-0.45-0.67,0-0.93c0.44-0.26,1.17-0.26,1.61,0
				C135.22,218.57,135.22,218.98,134.77,219.24z"/>
			<path class="st44" d="M118.88,213.78c-0.44,0.26-1.17,0.26-1.61,0c-0.44-0.26-0.44-0.67,0-0.93c0.45-0.26,1.17-0.26,1.61,0
				C119.32,213.11,119.32,213.53,118.88,213.78z"/>
			<path class="st44" d="M122.17,215.66c-0.44,0.26-1.17,0.26-1.61,0c-0.44-0.26-0.44-0.67,0-0.93c0.44-0.26,1.17-0.26,1.61,0
				C122.62,214.99,122.62,215.41,122.17,215.66z"/>
			<path class="st44" d="M125.47,217.54c-0.44,0.26-1.17,0.26-1.61,0c-0.45-0.26-0.45-0.67,0-0.93c0.44-0.26,1.17-0.26,1.61,0
				C125.91,216.87,125.91,217.28,125.47,217.54z"/>
			<path class="st44" d="M128.76,219.42c-0.45,0.26-1.17,0.26-1.61,0c-0.45-0.26-0.45-0.67,0-0.93c0.44-0.26,1.17-0.26,1.61,0
				C129.21,218.75,129.21,219.16,128.76,219.42z"/>
			<path class="st63" d="M132.06,221.3c-0.45,0.26-1.17,0.26-1.61,0c-0.44-0.26-0.44-0.67,0-0.93c0.45-0.26,1.17-0.26,1.61,0
				C132.5,220.63,132.5,221.04,132.06,221.3z"/>
			<ellipse class="st63" cx="115.36" cy="215.38" rx="1.14" ry="0.66"/>
			<ellipse class="st44" cx="118.66" cy="217.26" rx="1.14" ry="0.66"/>
			<path class="st63" d="M122.76,219.6c-0.44,0.26-1.17,0.26-1.61,0c-0.44-0.26-0.44-0.67,0-0.93c0.44-0.26,1.17-0.26,1.61,0
				C123.2,218.93,123.2,219.34,122.76,219.6z"/>
			<ellipse class="st44" cx="125.25" cy="221.02" rx="1.14" ry="0.66"/>
			<path class="st63" d="M129.35,223.36c-0.45,0.26-1.17,0.26-1.61,0c-0.45-0.26-0.45-0.67,0-0.93c0.45-0.26,1.17-0.26,1.61,0
				C129.79,222.69,129.79,223.1,129.35,223.36z"/>
			<g>
				<line class="st64" x1="87.64" y1="205.03" x2="104.33" y2="214.79"/>
				<line class="st64" x1="86.42" y1="206" x2="103.11" y2="215.76"/>
				<line class="st64" x1="85.19" y1="206.97" x2="101.89" y2="216.74"/>
			</g>
			<g>
				<path class="st49" d="M79.06,206.01c0,0,6.21,6.61,6.62,13.18l-1.21,2.59l-2.5-1.83c0,0-1.78-8.64-5-11.22L79.06,206.01z"/>
				<path class="st50" d="M64.48,283.45c0,0-0.43,4.09,1.57,3.88c2.33-0.25,9.55-5.11,7.94-6.64c-1.61-1.53-7.63,1.24-7.63,1.24
					L64.48,283.45z"/>
				<path class="st50" d="M77.31,289.51c0,0-0.43,4.09,1.57,3.88c2.33-0.25,9.55-5.11,7.94-6.64c-1.61-1.53-7.63,1.24-7.63,1.24
					L77.31,289.51z"/>
				
					<rect x="71.19" y="187.55" transform="matrix(-1 -1.224647e-16 1.224647e-16 -1 146.6731 381.1468)" class="st2" width="4.28" height="6.05"/>
				<path class="st49" d="M80.04,220.17c0,0,6.89,15.73,1.72,69.73c-0.03,0.28-0.18,0.53-0.42,0.67c-0.91,0.52-3.19,1.45-4.38-1.6
					c-0.03-0.08-0.05-0.17-0.06-0.26l-4.49-56.56c-0.04-0.91-0.51-0.95-0.6-0.04l-2.76,51.71c-0.02,0.39-0.27,0.73-0.63,0.87
					c-1.21,0.45-3.85,0.98-4.34-2.82c0,0-4.68-55.94,0.79-63.52L80.04,220.17z"/>
				<path class="st50" d="M64.86,216.61c0.12,0.23,0.27,0.45,0.46,0.64c1.57,1.61,5.8,4.5,14.22,1.49c0.19-0.07,0.36-0.17,0.5-0.3
					v1.73c-0.15,0.13-0.31,0.23-0.5,0.3c-8.42,3.01-12.65,0.12-14.22-1.49c-0.19-0.19-0.33-0.41-0.46-0.64V216.61z"/>
				<path class="st53" d="M75.48,191.55l-4.28-0.97l-6.76-0.88c-1.65-0.22-2.84,2.18-2.96,4.74c-0.23,4.87,3.04,21.45,3.04,21.45
					c0.04,0.67,0.32,1.31,0.79,1.79c1.56,1.6,5.79,4.52,14.23,1.5c0.53-0.19,0.92-0.66,1.01-1.22l3.15-19.6
					c0.16-1.02-0.27-2.05-1.12-2.64L75.48,191.55z"/>
				<path class="st2" d="M80.81,179.94c0,0-0.52,5.85-2.94,8.85c-2.42,3-7.11-1.95-7.8-3.4c-0.7-1.44-1.83-10.49,5.44-10.49
					C80.22,174.9,81.05,177.83,80.81,179.94z"/>
				<path class="st49" d="M73.81,183.58c0,0,2.44-1.73,3.35-4.67c0,0,0.54-0.32,3.51,2.17c0,0,3.36-0.01,1.8-3.55
					c-1.56-3.54-8.01-8.01-11.11-4.48c0,0-5.91-0.98-4.77,6.67c1.51,10.08,6.23,8.42,7.41,6.12
					C75.15,183.59,73.81,183.58,73.81,183.58z"/>
				<path class="st2" d="M75.33,182.4c0,0-0.98-1.93-1.79-0.78c-0.81,1.15,0.17,3.47,1.93,3.77L75.33,182.4z"/>
				<path class="st2" d="M110.74,216.86c0.06-0.02,0.64,0.88,1.07,1.56c0.12,0.2-0.1,0.43-0.3,0.32l-1.22-0.68
					c0,0,0.08,2.01-2.78,0.22l-0.07-1.95L110.74,216.86z"/>
				<path class="st52" d="M108.06,216.28c0,0-17.82-10.13-19-4.21c-1.18,5.92,18.39,6.38,18.39,6.38S108.28,217.88,108.06,216.28z"
					/>
				<path class="st52" d="M82.57,195.7c0,0,2.68,1.34,6.4,6.64c5.05,7.2,7.38,11.49,2.68,13.08c-1.19,0.4-9.39-8.2-9.39-8.2
					S78.93,200.09,82.57,195.7z"/>
				<path class="st52" d="M76.35,192.06l-0.87-1.48c0,0-1.47-0.9-4.28-0.96l-1.02,0.87C70.17,190.49,70.39,191.5,76.35,192.06z"/>
			</g>
		</g>
		
			<linearGradient id="SVGID_36_" gradientUnits="userSpaceOnUse" x1="-1216.847" y1="183.7028" x2="-1216.847" y2="93.0006" gradientTransform="matrix(-0.999 -0.0439 0.0439 -0.999 -937.3235 192.8101)">
			<stop  offset="1.860120e-03" style="stop-color:#AC24B9"/>
			<stop  offset="1" style="stop-color:#2E2142"/>
		</linearGradient>
		<path class="st65" d="M269.19,83.55c3.53,9.57,16.66,21.85,27.45,17.25c5.34-2.27,8.24-9.75,4.67-14.32
			c-2.54-3.25-7.1-4.05-10.38-6.55c-2.93-2.23-4.65-5.65-6.88-8.59c-2.22-2.94-5.51-5.63-9.17-5.22
			c-7.67,0.86-7.69,11.44-5.88,16.86C269.05,83.18,269.12,83.36,269.19,83.55z"/>
	</g>
</g>
<g id="Designed_by_Freepik">
</g>
</svg>
